<?xml version="1.0" standalone="no"?>
<!DOCTYPE svg PUBLIC "-//W3C//DTD SVG 20010904//EN"
 "http://www.w3.org/TR/2001/REC-SVG-20010904/DTD/svg10.dtd">
<svg version="1.0" xmlns="http://www.w3.org/2000/svg"
 width="316.000000pt" height="246.000000pt" viewBox="0 0 316.000000 246.000000"
 preserveAspectRatio="xMidYMid meet">
<metadata>
Created by potrace 1.16, written by Peter Selinger 2001-2019
</metadata>
<g transform="translate(0.000000,246.000000) scale(0.100000,-0.100000)"
fill="#000000" stroke="none">
<path d="M2732 2408 c-7 -7 -12 -16 -12 -22 0 -5 -10 -21 -22 -34 -20 -21 -23
-33 -20 -94 2 -62 1 -69 -15 -64 -31 10 -38 -7 -39 -88 -1 -64 -5 -82 -19 -92
-10 -7 -22 -11 -27 -8 -5 3 -15 0 -23 -6 -10 -9 -19 -9 -27 -2 -15 11 -78 21
-194 28 -134 8 -242 -33 -325 -124 -56 -61 -73 -110 -66 -189 4 -38 9 -78 13
-90 5 -17 0 -25 -26 -38 -18 -9 -34 -14 -38 -11 -3 3 -11 1 -19 -5 -9 -8 -17
-8 -25 -1 -15 11 -78 21 -191 28 -90 6 -191 -15 -244 -50 -61 -42 -113 -96
-132 -139 -22 -48 -34 -136 -22 -151 5 -6 11 -28 15 -49 6 -34 5 -38 -21 -49
-15 -7 -32 -12 -38 -13 -5 0 -16 -4 -23 -9 -7 -4 -19 -2 -28 5 -32 26 -304 34
-364 10 -89 -35 -169 -109 -206 -189 -24 -53 -32 -120 -15 -137 5 -6 11 -28
13 -50 l3 -40 -80 -6 c-44 -3 -93 -12 -110 -19 -39 -18 -155 -97 -180 -124
-54 -57 -110 -165 -121 -235 -5 -33 -2 -41 23 -62 42 -35 127 -54 178 -40 23
6 88 47 149 93 l109 82 31 -36 c59 -68 86 -135 87 -213 1 -93 11 -157 27 -163
9 -3 12 24 12 110 0 107 -2 117 -31 173 -17 33 -47 79 -66 103 -19 24 -34 44
-32 45 2 1 18 12 36 25 41 28 43 28 43 -6 0 -57 85 -100 155 -80 17 5 63 13
103 18 116 14 212 82 247 174 16 43 17 43 48 33 18 -5 48 -16 67 -25 49 -20
89 -32 129 -38 19 -2 39 -8 45 -11 6 -4 17 -8 25 -10 31 -4 60 -49 70 -108 6
-33 22 -119 36 -192 14 -72 25 -144 25 -160 0 -35 14 -58 29 -49 6 4 9 11 6
16 -3 5 -7 26 -10 47 -2 21 -13 90 -25 153 -11 63 -23 127 -25 141 -9 59 -38
141 -56 158 -20 18 -86 42 -169 60 -45 10 -156 46 -197 64 -21 9 -21 10 9 51
16 22 36 55 43 73 14 33 17 33 74 17 23 -7 24 -5 18 24 -6 30 -5 32 22 32 16
0 34 -6 40 -13 19 -24 89 -39 124 -28 18 6 64 15 102 20 122 18 204 74 250
172 l21 46 65 -24 c35 -14 76 -27 92 -30 15 -3 30 -9 33 -14 3 -5 20 -9 39 -9
19 0 37 -4 40 -10 3 -5 14 -10 24 -10 39 0 79 -84 81 -166 0 -17 9 -67 19
-110 11 -44 25 -114 32 -156 8 -53 16 -78 25 -78 14 0 13 13 -7 110 -5 25 -18
99 -29 165 -26 156 -34 186 -54 221 -20 33 -85 64 -156 75 -39 6 -156 42 -229
71 l-24 9 27 27 c14 16 26 33 26 40 0 7 4 12 9 12 4 0 13 15 18 33 5 17 14 31
19 31 5 -1 24 -4 42 -8 33 -6 33 -5 27 24 -6 29 -5 30 29 30 20 0 36 -4 36
-10 0 -5 17 -17 38 -26 31 -13 45 -14 84 -4 25 6 72 14 104 16 108 10 214 83
251 176 15 37 18 39 45 34 16 -3 44 -12 61 -21 44 -20 124 -46 150 -48 12 -2
32 -8 43 -14 12 -7 23 -10 26 -8 3 3 15 -6 27 -19 17 -18 27 -51 41 -132 24
-134 29 -164 36 -186 7 -23 10 -44 18 -110 5 -40 12 -58 22 -58 16 0 17 12 4
60 -5 19 -12 51 -14 70 -3 19 -10 62 -16 95 -47 271 -55 290 -139 324 -32 12
-64 22 -72 20 -20 -3 -89 12 -89 20 0 4 -21 13 -47 20 -95 26 -113 33 -113 42
0 6 14 27 30 48 17 21 35 51 39 67 5 16 12 28 17 28 5 -1 24 -5 43 -9 33 -7
33 -7 26 24 l-7 31 46 0 c53 0 59 13 21 45 l-24 22 43 35 c29 25 57 38 89 43
58 9 102 46 93 78 -3 12 -6 86 -6 165 0 142 0 143 -24 152 -19 7 -26 19 -32
55 -5 35 -13 50 -33 63 -14 9 -32 25 -39 34 -15 21 -52 24 -70 6z m50 -125
c-2 -60 1 -124 6 -143 9 -32 10 -29 11 35 1 93 12 175 22 175 23 0 33 -50 31
-152 -2 -116 12 -147 21 -47 3 34 10 66 16 72 8 8 11 7 12 -3 0 -13 0 -292 -1
-311 0 -11 -50 -29 -79 -29 -23 0 -30 5 -34 28 -7 32 -73 113 -90 109 -7 -1
-10 5 -7 13 2 8 6 74 8 145 1 72 6 137 9 145 8 18 21 -64 22 -137 1 -29 6 -53
11 -53 6 0 10 50 10 130 0 118 2 130 18 130 16 0 17 -10 14 -107z m-362 -295
c46 -15 69 -29 88 -52 25 -32 42 -33 42 -3 0 34 11 40 28 16 11 -17 22 -20 47
-16 l32 5 -19 -39 c-21 -44 -17 -59 15 -59 39 0 51 -15 22 -28 -26 -12 -35
-42 -12 -42 6 0 23 -9 37 -20 l25 -20 -30 2 c-38 2 -55 -8 -55 -33 0 -20 -15
-26 -25 -9 -12 20 -24 9 -57 -52 -19 -37 -65 -96 -111 -143 -44 -44 -85 -94
-93 -112 -39 -90 -227 -153 -276 -93 -10 12 -18 37 -18 55 0 27 6 37 36 54 27
16 40 19 55 11 23 -13 24 -7 3 25 -19 30 -12 70 18 102 18 19 22 20 35 7 19
-19 39 -19 23 1 -15 18 -5 35 21 35 10 0 19 5 19 10 0 6 -16 10 -35 10 -47 0
-45 18 5 69 30 30 36 41 23 41 -16 0 -82 -66 -83 -82 0 -12 -38 -10 -61 3 -17
9 -19 17 -13 60 4 27 4 49 1 49 -16 0 -39 -65 -33 -92 l6 -29 -51 28 c-58 31
-74 57 -65 105 20 109 130 215 246 239 37 8 184 5 210 -3z m-270 -401 l35 5
-22 -24 c-25 -26 -43 -69 -43 -101 0 -15 -11 -28 -34 -41 -31 -16 -36 -17 -63
-2 -17 8 -34 12 -38 8 -7 -7 -3 24 11 82 l7 28 -42 -7 c-58 -10 -52 7 16 42
52 28 59 29 97 18 23 -7 57 -10 76 -8z m-362 -50 c24 -16 45 -34 49 -42 9 -24
33 -17 33 8 0 34 11 40 27 16 11 -15 23 -19 44 -15 34 5 33 6 14 -40 -16 -38
-13 -56 8 -48 7 2 21 -2 32 -9 18 -14 18 -15 -3 -26 -24 -13 -30 -41 -9 -41 6
0 23 -9 37 -20 l25 -20 -30 2 c-39 2 -55 -8 -55 -34 0 -14 -5 -18 -15 -14 -8
3 -21 9 -29 12 -8 3 -16 -3 -19 -18 -11 -41 -76 -131 -143 -198 -36 -36 -75
-83 -87 -105 -25 -44 -93 -91 -146 -100 -19 -3 -38 -8 -43 -11 -15 -9 -78 17
-88 36 -20 38 -12 77 21 101 25 18 35 20 55 10 27 -12 32 0 8 20 -21 18 -12
74 17 105 21 23 24 23 41 7 21 -19 36 -10 19 11 -15 18 -6 37 13 30 8 -3 17
-1 21 5 6 10 -20 16 -52 12 -26 -4 -12 33 27 71 32 30 37 38 22 38 -11 0 -34
-17 -51 -37 -35 -42 -66 -55 -94 -41 -16 8 -18 17 -12 61 7 50 6 51 -11 35
-11 -11 -18 -33 -19 -58 0 -46 -7 -48 -55 -19 -68 41 -76 79 -35 167 28 61 79
112 145 144 62 31 101 37 205 34 79 -2 95 -6 133 -29z m-411 -368 c15 -6 50
-11 76 -10 l48 1 -30 -38 c-17 -21 -31 -52 -33 -72 -2 -26 -10 -38 -35 -53
-29 -17 -34 -17 -62 -2 -17 8 -31 12 -31 8 0 -5 -4 -1 -9 6 -6 9 -6 22 1 34 5
10 12 30 14 44 5 24 3 24 -41 18 -48 -8 -64 8 -22 21 12 4 38 17 57 30 41 28
32 27 67 13z m-316 -39 c23 -6 58 -27 78 -46 40 -38 53 -42 50 -16 -4 45 14
60 26 21 6 -17 13 -20 41 -16 40 6 40 4 14 -46 l-20 -37 21 0 c11 0 29 -5 40
-11 19 -10 19 -11 -3 -30 -22 -19 -22 -20 -4 -32 10 -7 28 -20 40 -29 l21 -17
-23 4 c-30 5 -74 -15 -68 -31 8 -20 -11 -26 -27 -9 -13 13 -17 12 -31 -10 -9
-13 -16 -29 -16 -34 0 -21 -67 -109 -132 -172 -38 -37 -75 -83 -83 -102 -16
-38 -99 -97 -136 -97 -11 0 -29 -5 -40 -11 -15 -7 -29 -7 -51 0 -39 14 -57 38
-58 78 0 44 49 81 87 64 13 -6 23 -8 21 -4 -2 5 -10 20 -17 35 -16 32 -8 70
21 98 19 18 23 18 38 5 23 -21 33 -19 20 5 -13 24 -5 41 14 34 8 -3 17 -1 21
5 6 10 -20 16 -52 12 -26 -4 -12 33 27 71 31 29 36 38 22 38 -10 0 -36 -18
-57 -40 -32 -33 -46 -40 -70 -38 -30 3 -30 4 -28 58 3 51 2 53 -14 37 -10 -10
-17 -33 -18 -57 0 -22 -4 -40 -9 -40 -25 0 -96 53 -102 75 -9 35 4 94 27 126
10 15 19 30 19 34 0 23 116 105 169 120 52 16 192 18 242 5z m-297 -399 l58
-6 -21 -19 c-28 -25 -55 -82 -48 -100 4 -10 -15 -28 -56 -56 -34 -22 -85 -57
-114 -78 -28 -20 -71 -50 -95 -67 -23 -16 -68 -48 -98 -71 -78 -59 -117 -71
-172 -54 -24 8 -53 20 -66 28 -30 19 -25 49 22 146 54 111 165 205 282 241
100 30 83 15 -56 -48 -91 -42 -186 -125 -200 -176 -12 -43 -12 -51 -2 -51 4 0
15 19 26 41 10 22 27 49 39 59 30 28 136 100 147 100 6 0 18 4 28 9 9 5 49 25
87 44 39 19 86 44 105 55 20 12 43 19 55 15 11 -3 46 -8 79 -12z"/>
</g>
</svg>
