<?xml version="1.0" standalone="no"?>
<!DOCTYPE svg PUBLIC "-//W3C//DTD SVG 20010904//EN"
 "http://www.w3.org/TR/2001/REC-SVG-20010904/DTD/svg10.dtd">
<svg version="1.0" xmlns="http://www.w3.org/2000/svg"
 width="512.000000pt" height="512.000000pt" viewBox="0 0 512.000000 512.000000"
 preserveAspectRatio="xMidYMid meet">

<g transform="translate(0.000000,512.000000) scale(0.100000,-0.100000)"
fill="#000000" stroke="none">
<path d="M2420 4964 c-197 -52 -358 -210 -415 -408 -22 -77 -23 -212 -1 -295
40 -157 159 -300 307 -371 384 -184 826 96 822 521 -2 160 -55 284 -172 400
-82 82 -160 127 -266 154 -74 19 -202 18 -275 -1z m271 -144 c204 -63 336
-276 300 -481 -44 -251 -286 -415 -530 -358 -215 49 -368 273 -333 485 45 271
305 434 563 354z"/>
<path d="M1011 4454 c-83 -22 -150 -62 -222 -134 -198 -195 -199 -506 -4 -706
199 -203 514 -205 715 -4 159 159 194 382 94 589 -33 68 -139 176 -210 213
-105 56 -257 73 -373 42z m290 -157 c70 -34 142 -106 177 -177 24 -49 27 -66
27 -155 0 -82 -4 -109 -22 -148 -31 -66 -115 -152 -182 -184 -50 -25 -67 -28
-156 -28 -89 0 -106 3 -155 27 -71 35 -143 107 -177 176 -32 65 -42 174 -23
252 26 108 131 220 241 256 72 23 203 14 270 -19z"/>
<path d="M3841 4454 c-83 -22 -150 -63 -221 -134 -104 -104 -150 -213 -150
-355 0 -139 50 -256 149 -355 109 -108 239 -157 386 -147 226 16 403 164 460
384 68 261 -98 537 -366 608 -68 19 -188 18 -258 -1z m290 -157 c70 -34 142
-106 177 -177 24 -49 27 -66 27 -155 0 -91 -3 -105 -29 -158 -35 -69 -117
-149 -183 -179 -39 -18 -67 -22 -148 -23 -89 0 -106 3 -156 27 -71 36 -141
104 -175 174 -33 67 -43 175 -24 254 26 108 131 220 241 256 72 23 203 14 270
-19z"/>
<path d="M1839 3641 c-151 -49 -260 -191 -277 -361 l-7 -65 -510 -5 -510 -5
-56 -28 c-72 -35 -132 -100 -172 -185 l-32 -67 -3 -560 c-3 -635 -5 -614 74
-684 49 -43 107 -61 194 -61 l49 0 3 -618 3 -617 33 -67 c60 -122 165 -184
297 -176 76 5 131 28 188 78 l34 29 22 -23 c74 -78 216 -107 326 -65 75 28
154 104 181 174 18 48 19 89 22 827 l3 777 25 -9 c14 -6 72 -10 129 -10 l104
0 3 -698 3 -697 28 -57 c97 -197 358 -250 521 -107 l46 41 46 -41 c163 -143
424 -90 521 107 l28 57 3 697 3 698 97 0 c53 0 114 3 135 6 l37 7 0 -780 0
-780 31 -61 c36 -74 92 -124 168 -153 105 -39 250 -10 320 65 l24 25 40 -34
c158 -135 402 -79 491 114 21 45 21 57 24 669 l3 622 49 0 c87 0 145 18 194
61 79 70 77 49 74 685 l-3 560 -38 76 c-45 92 -113 158 -193 187 -53 20 -75
21 -548 21 l-492 0 -12 78 c-24 153 -107 274 -231 335 l-66 32 -685 2 c-637 2
-689 1 -741 -16z m1426 -140 c54 -24 120 -100 142 -164 17 -48 18 -99 18 -634
l0 -582 -29 -30 c-29 -31 -31 -31 -133 -31 l-103 0 0 525 c0 512 -1 526 -20
545 -29 29 -74 26 -99 -6 -21 -27 -21 -27 -21 -1297 l0 -1271 -21 -44 c-37
-76 -128 -116 -224 -98 -43 8 -100 56 -126 107 -18 37 -19 65 -19 699 l0 661
-25 24 c-13 14 -33 25 -45 25 -12 0 -32 -11 -45 -25 l-25 -24 0 -658 c0 -737
3 -703 -73 -770 -89 -78 -244 -47 -296 59 l-21 44 0 1271 c0 1270 0 1270 -21
1297 -25 32 -70 35 -99 6 -19 -19 -20 -33 -20 -545 l0 -525 -104 0 c-97 0
-105 1 -129 26 -36 36 -40 101 -35 699 4 496 5 511 26 565 24 62 88 131 142
154 30 13 129 15 700 15 624 1 667 -1 705 -18z m-1710 -1766 l0 -1340 -22 -35
c-64 -104 -227 -106 -293 -4 -19 28 -20 52 -20 631 l0 602 -23 27 c-31 36 -73
36 -104 0 l-23 -27 0 -602 0 -602 -24 -36 c-66 -96 -218 -92 -286 8 l-25 37
-3 1160 c-2 1058 -4 1161 -19 1178 -22 25 -75 23 -99 -3 -18 -20 -19 -45 -22
-496 l-3 -475 -70 4 c-118 6 -109 -42 -109 588 l0 537 30 60 c33 65 84 109
142 123 18 5 244 7 503 7 l470 -2 0 -1340z m3020 1323 c47 -25 86 -68 111
-123 l24 -50 0 -532 c0 -292 -3 -539 -6 -548 -10 -26 -59 -45 -118 -45 l-55 0
-3 481 c-3 463 -4 481 -22 495 -11 8 -34 14 -52 14 -68 0 -64 80 -64 -1189 0
-1140 0 -1145 -21 -1188 -29 -59 -70 -86 -139 -91 -65 -5 -98 9 -145 58 l-30
31 -5 612 c-3 337 -9 620 -13 629 -11 22 -57 37 -82 28 -51 -19 -50 0 -52
-646 -3 -664 0 -639 -64 -685 -39 -27 -125 -37 -169 -19 -41 17 -87 71 -99
117 -13 44 -14 853 -4 1946 l6 728 486 -3 c430 -3 489 -5 516 -20z"/>
</g>
</svg>
